<?xml version="1.0" encoding="utf-8"?>
<!-- Generator: Adobe Illustrator 22.0.0, SVG Export Plug-In . SVG Version: 6.00 Build 0)  -->
<svg version="1.1" id="Layer_1" xmlns="http://www.w3.org/2000/svg" xmlns:xlink="http://www.w3.org/1999/xlink" x="0px" y="0px"
	 viewBox="0 0 420 536" style="enable-background:new 0 0 420 536;" xml:space="preserve">
<style type="text/css">
	.st0{fill:url(#SVGID_1_);}
	.st1{fill:url(#SVGID_2_);}
	.st2{fill:url(#SVGID_3_);}
	.st3{fill:url(#SVGID_4_);}
	.st4{fill:url(#SVGID_5_);}
	.st5{fill:url(#SVGID_6_);}
	.st6{fill:url(#SVGID_7_);}
	.st7{fill:url(#SVGID_8_);}
	.st8{fill:url(#SVGID_9_);}
	.st9{fill:url(#SVGID_10_);}
	.st10{fill:url(#SVGID_11_);}
	.st11{fill:url(#SVGID_12_);}
	.st12{display:none;}
	.st13{display:inline;fill:url(#SVGID_13_);}
	.st14{display:inline;}
	.st15{fill:#FFFFFF;}
	.st16{display:inline;fill:url(#SVGID_14_);}
	.st17{display:inline;fill:#FFFFFF;}
	.st18{display:inline;fill:url(#SVGID_15_);}
	.st19{fill:url(#SVGID_16_);}
	.st20{fill:url(#SVGID_17_);}
	.st21{fill:url(#SVGID_18_);}
	.st22{fill:url(#SVGID_19_);}
	.st23{fill:url(#SVGID_20_);}
	.st24{fill:url(#SVGID_21_);}
	.st25{fill:url(#SVGID_22_);}
	.st26{fill:url(#SVGID_23_);}
	.st27{fill:url(#SVGID_24_);}
	.st28{display:inline;fill:url(#SVGID_25_);}
	.st29{display:inline;fill:url(#SVGID_26_);}
	.st30{fill:url(#SVGID_27_);}
	.st31{fill:url(#SVGID_28_);}
	.st32{fill:url(#SVGID_29_);}
	.st33{fill:url(#SVGID_30_);}
	.st34{fill:url(#SVGID_31_);}
	.st35{fill:url(#SVGID_32_);}
	.st36{fill:url(#SVGID_33_);}
	.st37{fill:url(#SVGID_34_);}
	.st38{fill:url(#SVGID_35_);}
	.st39{fill:url(#SVGID_36_);}
	.st40{fill:url(#SVGID_37_);}
	.st41{fill:url(#SVGID_38_);}
	.st42{fill:url(#SVGID_39_);}
	.st43{fill:url(#SVGID_40_);}
	.st44{fill:url(#SVGID_41_);}
	.st45{fill:url(#SVGID_42_);}
	.st46{fill:url(#SVGID_43_);}
	.st47{fill:url(#SVGID_44_);}
	.st48{fill:url(#SVGID_45_);}
	.st49{fill:url(#SVGID_46_);}
	.st50{fill:url(#SVGID_47_);}
	.st51{fill:url(#SVGID_48_);}
	.st52{fill:url(#SVGID_49_);}
	.st53{fill:url(#SVGID_50_);}
	.st54{fill:url(#SVGID_51_);}
	.st55{fill:url(#SVGID_52_);}
	.st56{fill:url(#SVGID_53_);}
</style>
<g>
	
		<radialGradient id="SVGID_1_" cx="107.0321" cy="70.4817" r="17.3113" gradientTransform="matrix(-1 0 0 1 468.1748 0)" gradientUnits="userSpaceOnUse">
		<stop  offset="0.1154" style="stop-color:#FFFFFF"/>
		<stop  offset="0.852" style="stop-color:#FFFFFF;stop-opacity:0"/>
	</radialGradient>
	<circle class="st0" cx="361.1" cy="70.5" r="17.3"/>
	<g>
		
			<rect x="378.9" y="55.7" transform="matrix(-1 -1.224647e-16 1.224647e-16 -1 761.8672 138.0587)" class="st15" width="4" height="26.7"/>
		
			<rect x="339.8" y="55.7" transform="matrix(-1 -1.224647e-16 1.224647e-16 -1 683.5433 138.0587)" class="st15" width="4" height="26.7"/>
		<g>
			<path class="st15" d="M336.2,115.7H386c5.2,0,9.3-4.2,9.3-9.3v0h-68.5v0C326.9,111.5,331.1,115.7,336.2,115.7z"/>
			<path class="st15" d="M326.9,103.3h68.5V86.7c0-2.4-1.9-4.3-4.3-4.3h-59.8c-2.4,0-4.3,1.9-4.3,4.3V103.3z"/>
			<path class="st15" d="M361.1,38.6l20.7,10.5c2.3,1.2,3.6,3.7,3.1,6.3l-0.1,0.3c-0.1,0.6-0.7,1.1-1.3,1.1h-44.9
				c-0.6,0-1.1-0.4-1.3-0.9v0c-0.9-2.8,0.4-5.8,3-7L361.1,38.6z"/>
			
				<rect x="359.4" y="33" transform="matrix(-1 -1.224647e-16 1.224647e-16 -1 722.2853 74.4587)" class="st15" width="3.6" height="8.5"/>
			<circle class="st15" cx="361.1" cy="30.8" r="3.8"/>
			<path class="st15" d="M331.1,119.7h57.4l18.7,321.2h-92.1L331.1,119.7z"/>
		</g>
		<polygon class="st15" points="269.7,443.9 407.1,443.9 407.1,436.6 265.8,436.6 		"/>
	</g>
	
		<linearGradient id="SVGID_2_" gradientUnits="userSpaceOnUse" x1="32.1457" y1="203.4572" x2="446.2044" y2="442.5141" gradientTransform="matrix(-1 0 0 1 468.1748 0)">
		<stop  offset="0.1154" style="stop-color:#FFFFFF"/>
		<stop  offset="0.852" style="stop-color:#FFFFFF;stop-opacity:0"/>
	</linearGradient>
	<path class="st1" d="M360.8,73.1l-39.3,370.2c0,0-84.9,0.2-178.6,2.4c-67.5,1.6-69.8-22.9-131.8-22.3
		c97.2-107.2,83.4-87.7,161.6-165.2L280.8,152"/>
	<path class="st15" d="M59.1,401.2c0.7-3.8,2.6-6.9,5.1-9.7c0.5-0.6,1-1,0.7-1.9c-1.3-5.2-0.8-10.4-0.2-15.7
		c1.1-9.1,0.3-18.2-0.5-27.2c-0.1-1.3,0-2,1.4-2.1c-0.7-2.4-0.3-5-1.5-7.2c-1-1.7-0.6-2.6,1.3-3.3c1-0.3,1.8-0.7,2.3-1.5
		c0.3-0.5,0.7-0.8,1.4-0.6c2.1,0.7,3.6,4.4,2.1,6c-1.8,2-1.6,4.2-1.6,6.5c1.7,0.2,2.3,1.5,2.8,2.9c0.9,2.4,1.5,5,2,7.5
		c0.9,4.7,1.4,9.4,1.9,14.4c1.9-1.8,3.7-3.2,5.9-4c0.2-1.3,1.1-2.1,1.9-3c3-3.3,7.2-4.8,11.2-6.4c0.1-1.9,0.3-3.8,0.4-5.7
		c0-0.6-0.2-1.3,0.8-1.3c0-2.6-0.1-5.2-2.9-6.7c-0.4-0.2-1.1-0.7-0.6-1.3c1.3-1.6,1.4-4.4,4.6-4.1c1.4,0.1,2.2,0.4,3,1.5
		c0.7,1.1,0.1,2.1,0,3.2c-0.2,2.4,0.1,4.7,0.2,7.1c0.4,0.3,0.9,0.4,1.3,0.3c1-0.2,1,0.6,1,1.2c0.7-0.6,1.5-1.1,1.5-2.2
		c0.1-1.7,3.1-3.5,4.4-2.4c1.4,1.1,3.7,1.9,2.6,4.5c0,0.1,0,0.1,0,0.2c0.4,3.2-0.7,2.8-2.7,2.9c-1.7,0-2.6,0.9-3.4,2.5
		c-0.7,1.3-0.9,2.8-1.8,4c0.3,4.6,0.9,9.3,0.1,13.9c2,0.4,3.8,1.7,5.9,1.4c1-1.1,0.4-2.1,0-3.2c-0.7-2-0.2-3.4,1.6-4.4
		c0.6-0.3,1.3-0.6,2-0.8c1.2-0.4,1.8-1.1,1.6-2.4c-0.2-1.8,0.7-2.7,2.3-2.8c1.7-0.1,2.9-0.6,3.4-2.4c0.1-0.3,0.4-0.7,0.7-0.7
		c1.8-0.5,3.5-1.5,5.4-1.6c0.7-0.1,1.4-0.1,1.8,0.5c0.7,1.1,1.8,1.3,3,1.4c1.9,0.2,3.1,1.2,3.5,3.1c0.2,0.8,0.2,1.7,0.8,2.2
		c1.5,1.3,2.5,2.7,1.8,5.3c3.9-2.9,7.8-4.1,11.9-4.7c0.7-0.1,1.3-0.4,1.9-0.5c0.6-0.2,1.1-0.4,0.9-1.1c-0.4-1.5,0.4-1.7,1.6-1.7
		c0.7,0,1.3-0.1,2-0.2c0,0.3,0,0.6,0,0.9c-0.1-0.3-0.1-0.6,0-0.9c0-1,0-2.1,0.1-3.1c-1.1-1.1-1.8-2.4-2-3.9
		c-0.1-1.2-0.2-2.3-1.4-3.2c-0.7-0.5-0.7-1.4-0.3-2.2c0.3-0.7,0.3-1.3,0.1-1.9c-0.6-3-0.6-3,2.1-4.4c0.1-0.1,0.2-0.1,0.3-0.2
		c2.1-2.3,4.8-1.6,7.3-1.2c2,0.4,3.5,2.7,2.8,4c-0.5,1-0.3,1.9,0.1,2.7c0.6,1.2,0.4,2.2-0.6,3.1c-0.4,0.4-0.8,0.7-0.5,1.3
		c1.3,2.6,0.5,4.6-1.8,6.2c0.4,0.7,0.3,1.5,0.5,2.3c2.7-0.3,2.7-0.3,2.9,2.1c0.4-0.3,0.9-0.8,1.3-0.8c1.5-0.2,2.4-1,2.7-2.5
		c0.2-1,1-1.5,1.8-1.9c0.6-0.2,1.3-0.3,1.6-0.9c0.9-1.7,2.2-2.7,4.1-2.8c0,1,0,2,0,3c-0.4,1.3-1.3,2.3-2.4,3.1
		c1-0.8,1.9-1.7,2.4-3.1c3.2-1.7,6.4-3.3,9.7-5c-0.3-1.4-1-2.8-1.2-4.1c-0.8-5.1-2.6-9.8-4.1-14.6c-1.1-3.4-3.9-4-6.7-5
		c-0.4-0.1-1.1,0-1.1-0.6c0-0.6,0.6-0.8,1.1-0.7c1.8,0.1,1.8-0.4,1-1.9c-1.6-2.8-0.7-5.5,1.9-7c0.2-0.1,0.5-0.2,0.6,0
		c0.5,0.8,2,0.9,1.3,2.3c0.7-0.1,0.9-1.2,1.6-0.7c0.5,0.4,0.3,1,0.1,1.5c-0.3,0.8,0.1,1.3,0.5,1.8c0.7,0.8,1.3,1.8,1.6,2.8
		c0.2,0.5,0.5,0.9,1,1.2c6.4,3,11,7.7,13.9,14.2c0.3-0.2,0.6-0.3,1-0.5c-1.4-1.8-2.7-3.5-3.4-5.7c-0.2-0.8-0.4-1.3,0.7-1.2
		c0.1,0.2,0.2,0.3,0.3,0.5c0.3-0.3,0.1-0.5-0.1-0.7c0.1-0.4-0.3-1.1,0.4-1.2c0.6-0.2,0.7,0.4,1,0.9c0.3,0.6,0.2,1.4,1.2,1.9
		c-0.1-0.9-0.2-1.5-0.3-2.2c-0.1-0.5-0.1-0.9,0.4-1c0.5-0.2,0.7,0.3,0.9,0.7c0.3,0.6,0,1.5,0.9,2c0-0.6,0-1,0-1.5
		c0-0.5-0.1-1.1,0.5-1.2c0.7-0.1,0.5,0.6,0.7,1.1c0.3,1,0,2.3,0.8,3.2c0.6-0.2,0.6-0.7,0.8-1.1c0.2-0.4,0.2-1.1,0.9-0.9
		c0.6,0.2,0.4,0.8,0.3,1.3c-0.3,1.5-0.1,3.2-1.2,4.4c0.3,1.5,0.2,3.2,2.3,3.8c0.7,0.2,0.9,1.1,1.1,1.8c1,3.1,1.9,6.3,2.9,9.4
		c1.6,5.3,1.6,5.2,7.2,4.7c3.1-0.3,6-1.4,9.1-1.6c2.2-0.1,4.4,0.2,6.8-0.1c-0.1-0.3-0.4-0.3-0.6-0.4c-1.3-1.4-1.2-1.9,0.7-2.4
		c1.1-0.3,2.1-0.4,3.2-0.6c-0.8-1.9-0.4-4.1-1.9-5.7c-0.5-0.6-0.6-1.8,0.3-2.1c1.3-0.4,1.1-1.3,1.1-2.1c0-0.8,0-1.7,0.5-2.5
		c-0.4-1.5-0.1-3,1.2-3.9c2.8-1.8,7-0.8,8.9,1.4c0.2,0.2,0.4,0.4,0.4,0.6c-0.4,2.1,0.9,4.1,0.5,6.3c0.9-0.2,1.8-0.4,2.4,0.6
		c0.6,1-0.1,1.9-0.7,2.6c-0.3,0.3-0.6,0.6-1,0.7c-1.3,0.3-1.4,1.1-0.9,2.2c2.1-1,4.5-1,6.5-2.3c0.1,0.4,0.1,0.6,0.1,0.8
		c-0.4,1.6,0,2,1.8,1.7c5.5-0.9,9.9-3.8,14.1-7.1c0.8-0.6,1.1-1.4,0.9-2.4c-1.4-7.7,0-15.4-0.5-23c0-0.3,0.2-0.6,0.5-0.7
		c-1.8-0.8-2.3-2.7-3-4.2c-0.2-0.4-0.4-0.8,0.1-1.1c0.4-0.2,0.7,0.1,0.9,0.4c0.2,0.2,0.4,0.5,0.5,0.7c0.2,0.2,0.4,0.6,0.7,0.4
		c0.5-0.2,0.3-0.6,0.3-0.9c-0.2-1-0.4-2-0.6-3c-0.1-0.3-0.1-0.6,0.3-0.8c0.4-0.1,0.5,0.2,0.7,0.4c0.5,0.6,0.2,1.6,1,2.1
		c0-0.7,0-1.4,0-2c0-0.5,0-1.1,0.6-1.2c0.6-0.1,0.7,0.6,0.8,1c0.2,0.7-0.3,1.7,0.9,2.4c0-1.2,0-2.1,0-3c0-0.4,0.1-0.8,0.6-0.8
		c0.6-0.1,0.6,0.4,0.7,0.9c0.2,0.8-0.5,1.6-0.1,2.4c0.5-0.2,0.5-0.5,0.5-0.8c0.1-0.5,0-1.4,0.6-1.3c0.9,0,0.4,0.9,0.5,1.5
		c0.4,2-0.7,3.8-1,5.8c0.7,0.2,1.8-0.1,1.7,1.1c-0.2,1.5,0.3,2.5,1.6,3.3c0.3,0.2,0.5,0.7,0.6,1.1c0.5,4.2,2.7,7.6,4.4,11.3
		c2.7,5.9,4.9,12,5.2,18.6c0.1,3-1.1,5.1-3.8,6.5c-3,1.6-6,3.2-9.2,4.4c-4.9,1.9-9.4,4.6-13.4,7.9c-1,0.8-2.2,1.6-2,3.4
		c0.9,6.1,2.2,12.1,6,17.1c0.9,1.2,1.2,2.6,0.3,3.9c-0.6,0.9-0.6,1.7,0,2.4c0.8,1.2,0.5,2-0.6,2.7c-0.6,0.3-1.2,0.6-1.7,1.1
		c-0.4,0.4-1.2,0.8-0.7,1.5c0.7,1,0.6,2.1,1,3.2c2.7,8.1,5.7,16,8.8,23.9c1.2,3.1,2.2,6.3,3,9.5c3.8,14.4,6.2,29,8.3,43.7
		c0.7,5,1.3,10.1,1.9,15.2c0.1,0.6,0.4,1.4-0.8,1.4c-0.3,1.7,1.1,2.9,1,4.6c3.4,0.8,6.4,2.2,9.1,4.5c0.8,0.7,1.5,1.5,1.2,2.7
		c-0.3,1.1-1.4,0.9-2.3,1.1c-0.4,0.1-0.8,0.1-1.3,0.1c-5.5,0.1-10.9-1-16.3-2c-0.5-0.1-1-0.2-1.1-0.8c-0.3-1.5-1.2-2.9-1.2-4.5
		c-1.1-1.7-1.3-3.8-1.9-5.7c-1.3,0-2.7-0.1-4,0c-1.3,0.1-1.9-0.3-2.4-1.6c-1.7-4.3-3.5-8.5-5.3-12.8c-5.7-13.7-11.4-27.4-17.1-41.1
		c-0.5-1.1-0.9-2.2-1.6-3.5c-0.2,0.8-0.3,1.2-0.4,1.6c-1.6,10.6-3.2,21.2-4.8,31.8c-0.6,4.3-1.8,8.5,0,12.9c0.7,1.8,0.9,3.9,1.5,5.7
		c0.5,1.7-0.1,2.1-1.7,1.7c0.3,2.6,1.4,5.1,1.9,7.7c0.4,2.3,1.3,4.1,3.9,4.4c2,0.2,3.8,1.1,5.7,1.6c0.9,0.3,1.9,0.6,1.7,1.9
		c-0.2,1.3-1.2,1.3-2.2,1.3c-4,0-8.1,0-12.1,0c-3.6,0-3.6,0-4.4-3.5c-0.1-0.2-0.2-0.4-0.3-0.6c-5.4,2.7-10.9,5.1-16.6,6.8
		c-1.3,0.4-2.4,0.6-3.3-0.5c-0.9-1.1-0.1-2.2,0.6-3.2c2-2.8,4.6-4.8,7.6-6.5c-0.2-2.2,0.1-4.4,0.2-6.6c-1.9,0.1-2.6-0.9-2.9-2.7
		c-0.8-5.9-1.7-11.8-2.6-17.6c-0.7-4.5-0.7-9.1-2.5-13.5c-2.4-5.6-4.4-11.4-6.5-17.2c-0.8-2.2-1.7-4.3-2.5-6.5
		c2,17.1,4.2,34.1,6.5,51.1c0.2,1.5,0.1,2.3-1.7,2.1c-0.8-0.1-1.7,0-2.5,0.1c0.1,4.8,0.2,9.7,0.3,14.5c0.5,2.8,0.1,3.8-1.7,3.9
		c-4.9,0.1-9.7,0-14.6,0c-0.9,0-1.5-0.4-1.7-1.3c-0.1-0.8,0.3-1.4,1.1-1.7c2.1-0.7,4.2-1.6,6.4-1.8c0.2-0.1,0.4-0.3,0.6-0.3
		c1.9-0.2,2.2-1.1,1.7-2.9c-0.9-3.4-1.5-6.9-2.2-10.4c-0.9-0.2-2.1,0.3-2.2-1.5c-1.3-13.8-2.9-27.6-4.7-41.3c-1-8-3.3-15.9-3.5-24
		c0,0,0,0,0,0c-0.1-0.8-0.8-1.2-1.3-1.7c-0.8-0.9-1.5-1.9-1.3-3.3c0.2-1.4,0.3-2.9,0.4-4.3c0.9-7.9,1.5-15.9,2-23.8
		c0.1-2.3-0.5-2.8-2.7-2.4c-3.5,0.5-3.5,0.5-3.7,3.9c0.1,3.2,0.1,6.5,0.2,9.7h0c0.1,2.6,0.7,5,1.6,7.4c0.9,2.7,1,2.7-1.4,4.1
		c-1,0.6-1.3,1.3-1.2,2.5c0.7,8,1.4,16,2,24.1c0.5,7.4,1.1,14.9,0.4,22.3c-0.9,9.8-1.7,19.5-2.1,29.4c-0.1,2.5-0.1,2.5-2.6,2.7
		c0.1,2.1-0.6,4.3-0.2,6.4c-0.4,0.1-0.9,0.1-1.3,0.2c-0.3-2.1-0.1-4.3-0.1-6.5c-0.3,0-0.6-0.1-0.8-0.1c0.2,2.5-0.4,5,0.3,7.4
		c-1.3,0.3-2.5,0.9-3.7,1.5c1.2-0.6,2.4-1.2,3.7-1.5c0.2-0.3,0.4-0.6,0.6-0.9c0.4-0.1,0.9-0.1,1.3-0.2c1.8,1,3.9,1.6,5.4,3.1
		c2.2,1.1,4.1,2.5,5.5,4.8c-0.4,0.1-0.6,0.2-0.7,0.2c-7.9,0-15.7,0-23.6,0c-1.4,0-1.5-0.7-1.4-1.7c0-1.3,0-2.6,0-3.8
		c0.2-3-0.2-6,0.2-8.9c-0.9-0.4-1.8-0.2-2.7-0.2c-0.8,0-1.2-0.2-1.2-1.1c-0.4-6.5-0.6-13-0.1-19.5c0.5-6.6,1.6-13.1,0.9-19.8
		c-0.4-3.7-0.4-7.5-0.7-11.4c-0.6,0.7-0.7,1.4-0.9,2c-4.5,15.3-9.1,30.7-13.6,46c-1.1,3.6-1,3.6-4.6,3.8c-0.6,2.7-0.8,5.5-1.8,8.1
		c0.7,1.1,1.4,2.2,2.1,3.4c0.9,0.9,1.3,1.9,1.8,3.2c-5.6,0-11,0-16.5,0c-4.9,0.3-9.8,0.6-14.7,1c-0.6,0-1.3,0.1-1.5-0.7
		c-0.2-0.7,0.2-1.2,0.7-1.5c1.1-0.7,2-1.8,3.3-2.2c0.4-0.9,1.2-1.3,2-1.7c1.1-0.7,1.4-1.4,0.9-2.6c-0.5-1.3-0.6-2.7-0.9-4
		c-0.4-1-0.2-2.6-1.1-3c-1.2-0.5-1.2-1.4-1.5-2.2c-1.6-6.3-3.1-12.5-4.3-18.9c-0.2-1.2-0.7-2.2-1.5-3.2c-3.7-4.6-7.5-9.2-9.8-14.7
		c-1.4,3-3.3,5.9-2.7,9.4c1,5.5,2,11,3,16.4c1,5.2,1.9,10.3,2.9,15.5c0.1,0.5,0.5,1.3-0.3,1.6c-1.1,0.4-0.6,1.1-0.5,1.8
		c0.6,2.5,1.3,5,3.1,7c1.5,1.4,2.4,3.2,2.9,5.1c0.2,0.8,0.4,1.8-0.3,2.4c-0.8,0.6-1.6,0.1-2.4-0.2c-3.1-1.6-5.7-3.8-8.2-6.2
		c-0.6-0.5-0.9-1.3-1-2.1c-1-1.4-1.5-3-2-4.6c-0.7-2.4-2-3.6-4.5-3c-1.3,0.3-1.7-0.5-1.8-1.6c-0.3-2.2-0.6-4.3-0.9-6.5
		c-0.1-0.8-0.3-1.7-0.4-2.5c-0.1-0.8-0.4-1.5-0.9-2.4c-1.6,3.8-3.1,7.4-3.4,11.3c-0.1,1.3-0.5,1.9-1.9,1.6c-1.1-0.2-1.6,0.2-2,1.2
		c-1.1,2.7-1.2,2.7,1.1,4.5c0.1,0.1,0.2,0.3,0.3,0.4c1.6,0.3,3,1.2,4.4,2.1c0.5,0.3,0.8,0.8,0.6,1.4c-0.2,0.6-0.7,0.9-1.2,0.9
		c-1.9,0.2-3.9,0.6-5.7,0.4c-2.6-0.3-5.2-1.1-7.8-1.6c-1.4-0.3-1.7-1-1.2-2.2c0-2.4,1-4.6,1.6-6.9c0.2-0.7,0.3-1.4-0.7-1.3
		c-1.9,0.2-1.9-0.9-1.6-2.3c2.2-12.4,4.8-24.7,10.1-36.1c1.7-3.8,0.9-6.5-0.8-9.6c-0.6-1.1-1.3-2.2-2-3.2c-2.1-3.4-3.8-6.9-4.5-10.9
		c-1.4-7.9,0.1-15.4,2.4-22.9c0.1-3.9,0.1-3.9-3.9-4.2c-0.3,0-0.6-0.1-0.9-0.1c-2.4-0.4-4.3-1.7-5.1-3.8
		C58.6,405.6,58.7,403.4,59.1,401.2z M278.9,500.6c-1.1,0-2.2,0-3.2,0.1C276.7,500.6,277.8,500.6,278.9,500.6z M84.5,374.8
		C84.5,374.8,84.5,374.9,84.5,374.8C84.5,374.9,84.5,374.8,84.5,374.8L84.5,374.8z M84.7,374.9c0-0.1-0.1-0.1-0.1-0.2h0
		C84.7,374.8,84.7,374.8,84.7,374.9z M84.6,381c-0.1-1-1.1-0.8-1.8-1.3c-0.2,1.2,0.1,1.7,0.9,2C84.2,381.8,84.7,381.3,84.6,381z
		 M125.6,366.1c-0.5,0-1.3-0.3-1.3,0.5c0,0.7,0.9,0.3,1.3,0.5c0.4-0.1,1.2,0.3,1.2-0.4C126.9,365.9,126.1,366.2,125.6,366.1z
		 M126.3,466.8c2.5-3.3,3.2-6.9,3.7-10.6c0.8-5.6,1.4-11.2,2.1-16.9c-4.9,4.7-8.5,10-10.9,16.1c-0.6,1.5,0.3,3.2,1.1,4.4
		C123.7,462,125.3,464.1,126.3,466.8z M163.4,498c-0.1,3.3,0.6,6.5,0.3,9.8c0,0,0,0,0,0c0.3,0.2,0.5,0.5,0.9,0.3
		c-0.1-3.4-0.3-6.7-0.4-10.1C164,498,163.7,498,163.4,498c-0.5-0.4-1-0.3-1.6-0.1C162.4,497.8,162.9,497.7,163.4,498z M162,507.3
		C162,507.3,162,507.3,162,507.3C162,507.3,162,507.3,162,507.3z M158.1,353.3c1,1.6,1.3,1.7,2.4,0.6
		C159.8,353.9,159,353.9,158.1,353.3z M173.4,379.5c0.4,0,0.7,0,1.1,0C174.1,379.5,173.8,379.5,173.4,379.5z M241.5,353
		c1-0.2,1.6-0.9,1.5-2c0.1-0.4,0.2-0.8-0.4-0.6c-0.9,0.3-1.8,0.7-2.7,1c-1.2-0.1-0.7,0.5-0.4,0.9C240.1,353,240.8,353.2,241.5,353z
		 M220.5,400.3c-0.4-0.4-0.5-1.1-0.5-1.7c-0.7-1.2-2.1-1.4-3.1-2c-0.6-0.3-0.9,0-1,0.6c-0.4,6.1,0.1,12,3.1,17.5c0,0,0,0,0,0
		c0.8-2.7,2.4-5.5,2.2-8.1C221.2,404.6,222.5,402.1,220.5,400.3z M223.9,376.5c-4.6,0-9.1,0-13.9,0c0.5,1,1.3,1.6,2,2.2
		c2,3.2,2.5,6.5,1.1,9.7c1.4-3.2,0.9-6.4-1.1-9.7c3.2,2.1,6.4,4.2,9.6,6.2c0.7,0.4,1.3,1.1,2.2,1.1c0.3-2.8,0.5-5.5,0.8-8.3
		C224.7,377.2,224.9,376.5,223.9,376.5z M185.1,378.1c3.2-1,6.3-1.6,9.6-1.2c0.2,0,0.5,0.1,0.7-0.5c-2-1-2.9-2.9-3.9-4.8
		c-4.1,2.4-8.3,4.8-12.4,7.3c-1.5,0.5-3,0.6-4.5,0.7c1.5-0.1,3-0.2,4.5-0.7C181.2,379.4,183.2,378.7,185.1,378.1z M169,498.2
		c-0.2,0-0.4,0-0.6,0c0,3.1,0,6.1,0,9.2c0.2,0,0.4,0,0.6,0C169,504.4,169,501.3,169,498.2z M161.7,498c-0.1,0-0.2,0.1-0.2,0.1
		C161.5,498,161.6,498,161.7,498z M134.8,505.2c0.1-1.4,0.2-2.8,0.4-4.1c-0.4,0-0.6,0.3-0.8,0.5c0.2,1.1-0.3,2.2-0.3,3.3
		C134.1,505.1,134.4,505.3,134.8,505.2c0.5,0.2,0.9,0.7,1.4,0.8C135.6,505.8,135.3,505.4,134.8,505.2z M97.3,422.7
		c2.9,4.6,4.2,9.6,3.6,15c-0.1,0.6-0.3,1.2-0.4,1.8c0-0.6,0.2-1.2,0.4-1.8c2.4-3.9,3-8.3,3.3-12.8c0.3-3.7,0.8-7.4,1.9-11
		c2.4,2.6,5.4,3.5,8.6,3.8c-3.2-0.3-6.3-1.2-8.6-3.8c0-1.1-0.3-2.2,0.3-3.2c2.1-3.4,1.4-6.8,0.2-10.3c-0.8-2.4-2.6-4.6-2.7-7.1
		c-0.1-3.5-2.3-4.9-4.9-6.1c-1.9,2.7-3.7,5.6-6,7.9c-0.5,0.5-0.4,0.9-0.2,1.4c1,2.2,1.9,4.4,2.8,6.7c0.9,2.3,1.6,4.7,1.7,7.2
		c0.1,3-1.1,5.2-3.9,6.2C94.7,418.7,96.1,420.6,97.3,422.7z M91.2,416.9c0.2-0.2,0.4-0.3,0.6-0.4C91.6,416.6,91.4,416.7,91.2,416.9
		c-0.1,0.1-0.2,0.2-0.3,0.2C91,417.1,91.1,417,91.2,416.9z M92.1,416.4C92.1,416.4,92.1,416.4,92.1,416.4
		C92.1,416.4,92.1,416.4,92.1,416.4z"/>
</g>
</svg>
